<svg height="24" width="24" xmlns="http://www.w3.org/2000/svg"><g transform="translate(0 -1028.4)"><path d="m24 12c0 6.627-5.373 12-12 12-6.6274 0-12-5.373-12-12 0-6.6274 5.3726-12 12-12 6.627 0 12 5.3726 12 12z" fill="#34495e" transform="matrix(.91667 0 0 .91667 1 1029.4)"/><path d="m12 1c-6.6274 0-12 5.3726-12 12h2c0-5.5229 4.4772-10 10-10 5.523 0 10 4.4771 10 10h2c0-6.6274-5.373-12-12-12z" fill="#2c3e50" transform="translate(0 1028.4)"/><path d="m13 11v2h1 6c.552 0 1-.448 1-1s-.448-1-1-1h-6z" fill="#bdc3c7" transform="translate(0 1028.4)"/><path d="m12 1033.4c-.552 0-1 .4-1 1v4 1h2v-1-4c0-.6-.448-1-1-1z" fill="#bdc3c7"/><path d="m-735.17 743.68h7v1h-7z" fill="#c0392b" transform="matrix(.70710678 -.70710678 .70710678 .70710678 0 0)"/><path d="m12 1038.4c-1.105 0-2 .9-2 2s.895 2 2 2 2-.9 2-2-.895-2-2-2zm0 1c.552 0 1 .4 1 1 0 .5-.448 1-1 1s-1-.5-1-1c0-.6.448-1 1-1z" fill="#bdc3c7"/><path d="m12 1028.4c-6.6274 0-12 5.3-12 12 0 6.6 5.3726 12 12 12 6.627 0 12-5.4 12-12 0-6.7-5.373-12-12-12zm0 2c5.523 0 10 4.4 10 10 0 5.5-4.477 10-10 10-5.5228 0-10-4.5-10-10 0-5.6 4.4772-10 10-10z" fill="#95a5a6"/><path d="m13 12c0 .552-.448 1-1 1s-1-.448-1-1 .448-1 1-1 1 .448 1 1z" fill="#2c3e50" transform="translate(0 1028.4)"/><path d="m13.73 1039.4c.17.3.281.6.281 1 0 .3-.111.7-.281 1h.281.812c.114-.4.188-.7.188-1 0-.4-.074-.7-.188-1h-.812z" fill="#95a5a6"/></g></svg>