<svg height="24" width="24" xmlns="http://www.w3.org/2000/svg"><g transform="translate(0 -1028.4)"><path d="m0 1031.4h24v14h-24z" fill="#16a085"/><path d="m0 1032.4h24v14h-24z" fill="#1abc9c"/><path d="m5 1033.4c0 2.2-1.7909 4-4 4v3.9c2.2091 0 4 1.8 4 4.1h14v-.1c0-2.2 1.791-4 4-4v-3.9c-2.209 0-4-1.8-4-4z" fill="#ecf0f1"/><path d="m16 11c0 2.761-1.791 5-4 5-2.2091 0-4-2.239-4-5 0-2.7614 1.7909-5 4-5 2.209 0 4 2.2386 4 5z" fill="#1abc9c" transform="translate(0 1028.4)"/><g fill="#ecf0f1"><path d="m10.281 1037.1 2.472-.7h.247v5c0 .3.022.5.067.6.05.1.15.1.3.2h.914v.2h-3.82v-.2h.929c.139-.1.237-.1.292-.2s.082-.3.082-.6v-3.2c0-.5-.025-.7-.075-.9-.035-.1-.1-.1-.195-.2h-.329c-.185 0-.442 0-.772.1z"/><g transform="matrix(1.9176 0 0 1.1179 18.509 -118.14)"><path d="m40 5c-.875 0-1.642.2021-2.188.5h-.812v.2812.1563.0625.0625.4375c0 .8285 1.343 1.5 3 1.5s3-.6715 3-1.5v-.4375-.0625-.0625-.1563-.2812h-.812c-.546-.2979-1.313-.5-2.188-.5z" fill="#f39c12" transform="matrix(.52148 0 0 .89455 -28.4253 1038.118)"/><path d="m42 7.5c0 .8284-1.343 1.5-3 1.5s-3-.6716-3-1.5 1.343-1.5 3-1.5 3 .6716 3 1.5z" fill="#f1c40f" transform="matrix(.52148 0 0 .89455 -27.9039 1036.318)"/><g fill="#ecf0f1"><path d="m40 5c-.875 0-1.642.2021-2.188.5h-.812v.2812.1563.0625.0625.4375c0 .8285 1.343 1.5 3 1.5s3-.6715 3-1.5v-.4375-.0625-.0625-.1563-.2812h-.812c-.546-.2979-1.313-.5-2.188-.5z" fill="#f39c12" transform="matrix(.52148 0 0 .89455 -28.4253 1036.329)"/><path d="m42 7.5c0 .8284-1.343 1.5-3 1.5s-3-.6716-3-1.5 1.343-1.5 3-1.5 3 .6716 3 1.5z" fill="#f1c40f" transform="matrix(.52148 0 0 .89455 -27.9039 1034.529)"/><path d="m40 5c-.875 0-1.642.2021-2.188.5h-.812v.2812.1563.0625.0625.4375c0 .8285 1.343 1.5 3 1.5s3-.6715 3-1.5v-.4375-.0625-.0625-.1563-.2812h-.812c-.546-.2979-1.313-.5-2.188-.5z" fill="#f39c12" transform="matrix(.52148 0 0 .89455 -28.4253 1034.5401)"/><path d="m42 7.5c0 .8284-1.343 1.5-3 1.5s-3-.6716-3-1.5 1.343-1.5 3-1.5 3 .6716 3 1.5z" fill="#f1c40f" transform="matrix(.52148 0 0 .89455 -27.9039 1032.7401)"/><path d="m40 5c-.875 0-1.642.2021-2.188.5h-.812v.2812.1563.0625.0625.4375c0 .8285 1.343 1.5 3 1.5s3-.6715 3-1.5v-.4375-.0625-.0625-.1563-.2812h-.812c-.546-.2979-1.313-.5-2.188-.5z" fill="#f39c12" transform="matrix(.52148 0 0 .89455 -28.4253 1032.7509)"/><path d="m42 7.5c0 .8284-1.343 1.5-3 1.5s-3-.6716-3-1.5 1.343-1.5 3-1.5 3 .6716 3 1.5z" fill="#f1c40f" transform="matrix(.52148 0 0 .89455 -27.9039 1030.9509)"/><path d="m40 5c-.875 0-1.642.2021-2.188.5h-.812v.2812.1563.0625.0625.4375c0 .8285 1.343 1.5 3 1.5s3-.6715 3-1.5v-.4375-.0625-.0625-.1563-.2812h-.812c-.546-.2979-1.313-.5-2.188-.5z" fill="#f39c12" transform="matrix(.52148 0 0 .89455 -24.7753 1038.118)"/><path d="m42 7.5c0 .8284-1.343 1.5-3 1.5s-3-.6716-3-1.5 1.343-1.5 3-1.5 3 .6716 3 1.5z" fill="#f1c40f" transform="matrix(.52148 0 0 .89455 -24.2539 1036.318)"/><path d="m40 5c-.875 0-1.642.2021-2.188.5h-.812v.2812.1563.0625.0625.4375c0 .8285 1.343 1.5 3 1.5s3-.6715 3-1.5v-.4375-.0625-.0625-.1563-.2812h-.812c-.546-.2979-1.313-.5-2.188-.5z" fill="#f39c12" transform="matrix(.52148 0 0 .89455 -23.7323 1037.224)"/><path d="m42 7.5c0 .8284-1.343 1.5-3 1.5s-3-.6716-3-1.5 1.343-1.5 3-1.5 3 .6716 3 1.5z" fill="#f1c40f" transform="matrix(.52148 0 0 .89455 -23.2109 1035.424)"/><path d="m40 5c-.875 0-1.642.2021-2.188.5h-.812v.2812.1563.0625.0625.4375c0 .8285 1.343 1.5 3 1.5s3-.6715 3-1.5v-.4375-.0625-.0625-.1563-.2812h-.812c-.546-.2979-1.313-.5-2.188-.5z" fill="#f39c12" transform="matrix(.52148 0 0 .89455 -28.4253 1030.9618)"/><path d="m42 7.5c0 .8284-1.343 1.5-3 1.5s-3-.6716-3-1.5 1.343-1.5 3-1.5 3 .6716 3 1.5z" fill="#f1c40f" transform="matrix(.52148 0 0 .89455 -27.9039 1029.1618)"/></g></g></g></g></svg>