<svg enable-background="new 0 0 512 512" viewBox="0 0 512 512" xmlns="http://www.w3.org/2000/svg"><path d="m504.505 377.843h-333.448v-262.501c0-26.6 21.563-48.163 48.163-48.163h237.123c26.6 0 48.163 21.563 48.163 48.163v262.501z" fill="#c7cfd3"/><path d="m87.196 198.558h61.285c12.468 0 22.576 11.188 22.576 24.989v153.961h-164.245v-75.8c0-8.864 2.664-17.477 7.573-24.481l44.302-63.211c6.834-9.752 17.358-15.458 28.509-15.458z" fill="#ff473e"/><path d="m15.467 420.116h482.79c7.354 0 13.315-5.961 13.315-13.315v-22.581c0-3.707-3.005-6.712-6.712-6.712h-497.952c-2.626 0-4.756 2.129-4.756 4.755v24.537c0 7.354 5.962 13.316 13.315 13.316z" fill="#2b3b47"/><path d="m37.741 282.906 38.847-55.394c.905-1.291 2.297-2.046 3.771-2.046h45.922c2.639 0 4.778 2.375 4.778 5.304v55.394c0 2.929-2.139 5.304-4.778 5.304h-84.769c-3.977 0-6.214-5.079-3.771-8.562z" fill="#76dfff"/><path d="m20.039 352.665h-13.227v-35.062h13.227c6.202 0 11.229 5.027 11.229 11.229v12.603c0 6.203-5.027 11.23-11.229 11.23z" fill="#ffd469"/><path d="m128.69 432.253c0 22.227-18.018 40.245-40.245 40.245s-40.245-18.018-40.245-40.245 18.018-40.245 40.245-40.245 40.245 18.019 40.245 40.245zm152.916-40.244c-22.227 0-40.245 18.018-40.245 40.245s18.018 40.245 40.245 40.245 40.245-18.018 40.245-40.245-18.019-40.245-40.245-40.245zm112.35 0c-22.227 0-40.245 18.018-40.245 40.245s18.018 40.245 40.245 40.245 40.245-18.018 40.245-40.245-18.018-40.245-40.245-40.245z" fill="#597b91"/><path d="m114.823 432.253c0 14.568-11.81 26.378-26.378 26.378s-26.378-11.81-26.378-26.378 11.81-26.378 26.378-26.378 26.378 11.81 26.378 26.378zm166.783-26.377c-14.568 0-26.378 11.81-26.378 26.378s11.81 26.378 26.378 26.378 26.378-11.81 26.378-26.378-11.81-26.378-26.378-26.378zm112.35 0c-14.568 0-26.378 11.81-26.378 26.378s11.81 26.378 26.378 26.378 26.378-11.81 26.378-26.378-11.81-26.378-26.378-26.378z" fill="#2b3b47"/></svg>