<!--?xml version="1.0" encoding="UTF-8"?-->
<svg id="Layer_2" data-name="Layer 2" xmlns="http://www.w3.org/2000/svg" viewBox="0 0 166.99 24.69" style="">
  <defs>
    <style>
      .cls-1 {
        fill: none;
        stroke: #fff;
        stroke-miterlimit: 10;
        stroke-width: .5px;
      }
    </style>
  </defs>
  <g id="Layer_1-2" data-name="Layer 1">
    <g>
      <path class="cls-1 wyFMCvbc_0" d="M.25,18.35V.25h3.7v7.49c.72-1.08,2.3-1.8,4.03-1.8,3.36,0,5.5,2.62,5.5,6.53s-2.38,6.19-5.78,6.19c-1.68,0-3.12-.74-3.77-1.85l-.19,1.54H.25ZM6.9,15.28c1.75,0,2.86-1.22,2.86-3s-1.1-3-2.86-3-2.93,1.2-2.93,3,1.2,3,2.93,3Z"></path>
      <path class="cls-1 wyFMCvbc_1" d="M21.59,5.99c3.82,0,6.6,2.54,6.6,6.34s-2.78,6.31-6.6,6.31-6.62-2.52-6.62-6.31,2.78-6.34,6.62-6.34ZM21.59,15.32c1.7,0,2.88-1.2,2.88-3.02s-1.18-3-2.88-3-2.9,1.2-2.9,3,1.18,3.02,2.9,3.02Z"></path>
      <path class="cls-1 wyFMCvbc_2" d="M29.67,12.42c0-3.82,2.28-6.46,5.93-6.46,1.49,0,2.9.6,3.6,1.49V.25h3.7v18.1h-3.48l-.19-1.54c-.65,1.1-2.14,1.85-3.86,1.85-3.46,0-5.69-2.45-5.69-6.24ZM39.18,12.27c0-1.8-1.2-3-2.93-3s-2.86,1.22-2.86,3,1.1,3,2.86,3,2.93-1.2,2.93-3Z"></path>
      <path class="cls-1 wyFMCvbc_3" d="M44.72,21.01h2.04c1.25,0,1.78-.38,2.26-1.68l.22-.58-4.82-12.41h3.96l2.62,7.7,2.9-7.7h3.84l-6.1,14.62c-1.01,2.45-2.35,3.48-4.46,3.48-.89,0-1.73-.12-2.45-.34v-3.1Z"></path>
      <path class="cls-1 wyFMCvbc_4" d="M68.24,14.56c.05.84.67,1.34,1.8,1.34s1.68-.41,1.68-1.03c0-.36-.19-.74-1.08-.94l-2.21-.48c-2.21-.48-3.29-1.44-3.29-3.55,0-2.5,2.14-3.94,5.02-3.94s4.73,1.63,4.73,4.06h-3.5c0-.82-.5-1.37-1.39-1.37-.84,0-1.37.43-1.37,1.08,0,.55.46.86,1.3,1.06l2.23.48c1.97.43,3.05,1.34,3.05,3.26,0,2.57-2.18,4.13-5.3,4.13s-5.16-1.68-5.16-4.1h3.5Z"></path>
      <path class="cls-1 wyFMCvbc_5" d="M83.1,5.99c3.82,0,6.6,2.54,6.6,6.34s-2.78,6.31-6.6,6.31-6.62-2.52-6.62-6.31,2.78-6.34,6.62-6.34ZM83.1,15.32c1.7,0,2.88-1.2,2.88-3.02s-1.18-3-2.88-3-2.9,1.2-2.9,3,1.18,3.02,2.9,3.02Z"></path>
      <path class="cls-1 wyFMCvbc_6" d="M91.83,18.35V.25h3.7v18.1h-3.7Z"></path>
      <path class="cls-1 wyFMCvbc_7" d="M109.98,6.35v12h-3.48l-.24-1.34c-.74.98-2.23,1.66-3.67,1.66-2.74,0-4.42-1.82-4.42-4.78v-7.54h3.7v6.19c0,1.97.67,2.83,2.18,2.83s2.23-.82,2.23-2.78v-6.24h3.7Z"></path>
      <path class="cls-1 wyFMCvbc_8" d="M113.91,18.35v-8.93h-2.28v-3.07h2.28v-3.72h3.7v3.72h2.28v3.07h-2.28v8.93h-3.7Z"></path>
      <path class="cls-1 wyFMCvbc_9" d="M121.26,2.36c0-1.18.94-2.09,2.11-2.09s2.09.91,2.09,2.09-.94,2.11-2.09,2.11-2.11-.94-2.11-2.11ZM121.54,6.35h3.7v12h-3.7V6.35Z"></path>
      <path class="cls-1 wyFMCvbc_10" d="M134,5.99c3.82,0,6.6,2.54,6.6,6.34s-2.78,6.31-6.6,6.31-6.62-2.52-6.62-6.31,2.78-6.34,6.62-6.34ZM134,15.32c1.7,0,2.88-1.2,2.88-3.02s-1.18-3-2.88-3-2.9,1.2-2.9,3,1.18,3.02,2.9,3.02Z"></path>
      <path class="cls-1 wyFMCvbc_11" d="M142.74,18.35V6.35h3.48l.24,1.25c.74-1.03,2.11-1.63,3.67-1.63,2.86,0,4.51,1.82,4.51,4.97v7.42h-3.7v-6.53c0-1.51-.84-2.5-2.11-2.5-1.46,0-2.4.96-2.4,2.45v6.58h-3.7Z"></path>
      <path class="cls-1 wyFMCvbc_12" d="M159.78,14.56c.05.84.67,1.34,1.8,1.34s1.68-.41,1.68-1.03c0-.36-.19-.74-1.08-.94l-2.21-.48c-2.21-.48-3.29-1.44-3.29-3.55,0-2.5,2.14-3.94,5.02-3.94s4.73,1.63,4.73,4.06h-3.5c0-.82-.5-1.37-1.39-1.37-.84,0-1.37.43-1.37,1.08,0,.55.46.86,1.3,1.06l2.23.48c1.97.43,3.05,1.34,3.05,3.26,0,2.57-2.18,4.13-5.3,4.13s-5.16-1.68-5.16-4.1h3.5Z"></path>
    </g>
  </g>
<style data-made-with="vivus-instant">.wyFMCvbc_0{stroke-dasharray:82 84;stroke-dashoffset:83;animation:wyFMCvbc_draw 2000ms ease-in 0ms forwards;}.wyFMCvbc_1{stroke-dasharray:60 62;stroke-dashoffset:61;animation:wyFMCvbc_draw 2000ms ease-in 0ms forwards;}.wyFMCvbc_2{stroke-dasharray:81 83;stroke-dashoffset:82;animation:wyFMCvbc_draw 2000ms ease-in 0ms forwards;}.wyFMCvbc_3{stroke-dasharray:71 73;stroke-dashoffset:72;animation:wyFMCvbc_draw 2000ms ease-in 0ms forwards;}.wyFMCvbc_4{stroke-dasharray:64 66;stroke-dashoffset:65;animation:wyFMCvbc_draw 2000ms ease-in 0ms forwards;}.wyFMCvbc_5{stroke-dasharray:60 62;stroke-dashoffset:61;animation:wyFMCvbc_draw 2000ms ease-in 0ms forwards;}.wyFMCvbc_6{stroke-dasharray:44 46;stroke-dashoffset:45;animation:wyFMCvbc_draw 2000ms ease-in 0ms forwards;}.wyFMCvbc_7{stroke-dasharray:64 66;stroke-dashoffset:65;animation:wyFMCvbc_draw 2000ms ease-in 0ms forwards;}.wyFMCvbc_8{stroke-dasharray:48 50;stroke-dashoffset:49;animation:wyFMCvbc_draw 2000ms ease-in 0ms forwards;}.wyFMCvbc_9{stroke-dasharray:45 47;stroke-dashoffset:46;animation:wyFMCvbc_draw 2000ms ease-in 0ms forwards;}.wyFMCvbc_10{stroke-dasharray:60 62;stroke-dashoffset:61;animation:wyFMCvbc_draw 2000ms ease-in 0ms forwards;}.wyFMCvbc_11{stroke-dasharray:65 67;stroke-dashoffset:66;animation:wyFMCvbc_draw 2000ms ease-in 0ms forwards;}.wyFMCvbc_12{stroke-dasharray:64 66;stroke-dashoffset:65;animation:wyFMCvbc_draw 2000ms ease-in 0ms forwards;}@keyframes wyFMCvbc_draw{100%{stroke-dashoffset:0;}}@keyframes wyFMCvbc_fade{0%{stroke-opacity:1;}99.9750062484379%{stroke-opacity:1;}100%{stroke-opacity:0;}}</style></svg>